<svg width="88" height="24" fill="none" xmlns="http://www.w3.org/2000/svg"><path d="M83.715.424V4.46h.515V1.017l1.175 3.416h.487l1.204-3.388v3.388h.544V.396h-.716l-.975 2.823c-.066.165-.114.31-.153.43a3.56 3.56 0 01-.076.22c-.037-.073-.073-.19-.117-.333-.025-.08-.052-.169-.083-.26L84.546.424h-.83zm-2.378.48V4.46h.544V.904h1.346v-.48H79.99v.48h1.347z" fill="#1F495F"/><path d="M74.718 24H58.474c-2.235 0-4.069-1.779-4.069-4.01V4.01c0-2.203 1.805-4.01 4.069-4.01h16.244c2.234 0 4.068 1.779 4.068 4.01v16.009c0 2.202-1.834 3.981-4.068 3.981z" fill="#8DC63F"/><path fill-rule="evenodd" clip-rule="evenodd" d="M65.866 19.426a2.616 2.616 0 01-1.92-.79 2.605 2.605 0 01-.802-1.892v-5.845c0-.734.258-1.355.802-1.892a2.682 2.682 0 011.92-.79h6.274V4.545h2.55v14.852h-8.824v.028zm.572-2.513h5.014c.373 0 .573-.028.63-.056.058-.057.058-.255.058-.622v-4.8c0-.367-.029-.564-.057-.62-.058-.057-.258-.057-.63-.057h-5.015c-.372 0-.572.028-.63.056-.057.057-.057.254-.057.621v4.772c0 .367.029.565.058.621.057.057.257.085.63.085z" fill="#fff"/><path d="M61.024 9.628h-2.55v9.798h2.55V9.628zm-2.549-5.054h2.55v2.513h-2.55V4.574z" fill="#fff"/><path fill-rule="evenodd" clip-rule="evenodd" d="M0 4.574v14.908h8.795c.745 0 1.404-.282 1.92-.79.544-.537.802-1.158.802-1.892v-5.873c0-.734-.286-1.383-.802-1.892a2.617 2.617 0 00-1.92-.79H2.55v-3.67H0zm8.251 12.339H3.237c-.343 0-.573-.028-.63-.085-.029-.056-.057-.254-.057-.62v-4.773c0-.367 0-.564.057-.62.057-.029.258-.057.63-.057h5.014c.373 0 .573 0 .63.056.029.057.058.254.058.621v4.8c0 .367 0 .565-.058.622-.057.028-.257.056-.63.056zm5.845 1.722c.544.537 1.174.79 1.92.79v.03h8.852v-8.528c0-.734-.287-1.384-.802-1.892a2.617 2.617 0 00-1.92-.79h-8.824v2.513h8.251c.373 0 .573 0 .63.056.03.057.058.254.058.621v1.13h-8.967v4.179c0 .734.286 1.383.802 1.891zm8.165-1.722H16.56c-.373 0-.573-.028-.63-.057-.03-.056-.058-.254-.058-.62v-1.384h6.389v2.06z" fill="#1F495F"/><path d="M26.616 19.426V8.245h8.824a2.62 2.62 0 011.92.79c.515.508.801 1.158.801 1.892v8.527h-2.55v-8.019c0-.367-.028-.564-.057-.62-.057-.057-.258-.057-.63-.057H29.91c-.372 0-.573.028-.63.056-.057.057-.057.254-.057.621v7.99h-2.607zM39.938 4.574v14.852h2.578v-4.32h2.005l4.04 4.32h2.722v-.706l-4.527-4.885 4.527-4.884v-.706h-2.75l-4.04 4.32h-2.006v-7.99h-2.55z" fill="#1F495F"/></svg>