<svg width="24" height="24" fill="none" xmlns="http://www.w3.org/2000/svg"><path d="M10.656 5a2 2 0 00-1.414.586l-.828.828A2 2 0 017 7H4.5a.5.5 0 00-.5.5v11a.5.5 0 00.5.5h15a.5.5 0 00.5-.5v-11a.5.5 0 00-.5-.5H17a2 2 0 01-1.414-.586l-.828-.828A2 2 0 0013.344 5h-2.688zM8.415 3.586A2 2 0 019.828 3h4.344a2 2 0 011.414.586l.828.828A2 2 0 0017.828 5H20a2 2 0 012 2v12a2 2 0 01-2 2H4a2 2 0 01-2-2V7a2 2 0 012-2h2.172a2 2 0 001.414-.586l.828-.828zM12 18a5.5 5.5 0 110-11 5.5 5.5 0 010 11zm0-2a3.5 3.5 0 100-7 3.5 3.5 0 000 7z" fill="#2E63E6"/></svg>