<svg width="16" height="16" fill="none" xmlns="http://www.w3.org/2000/svg"><path d="M11.666 4.667a.333.333 0 01-.333-.333V2.667c0-.737-.597-1.333-1.333-1.333H2.666c-.736 0-1.333.596-1.333 1.333V10c0 .737.597 1.334 1.333 1.334h1.667c.184 0 .333.149.333.333v1.667c0 .736.597 1.333 1.334 1.333h7.331c.736 0 1.333-.597 1.333-1.333V6c0-.736-.597-1.333-1.333-1.333h-1.665zM10 4.334c0 .184-.15.333-.334.333H6c-.737 0-1.334.597-1.334 1.333v3.667a.333.333 0 01-.333.333H3a.333.333 0 01-.334-.333V3c0-.184.15-.333.334-.333h6.666c.185 0 .334.15.334.333v1.333zm-4 2C6 6.149 6.149 6 6.333 6h6.665c.184 0 .333.15.333.333L13.333 13c0 .184-.15.334-.333.334H6.333A.333.333 0 016 13V6.333z" fill="#2E63E6"/></svg>