<svg width="36" height="36" fill="none" xmlns="http://www.w3.org/2000/svg"><path d="M18 36c-10.078 0-12.793-.508-15.142-2.858C.498 30.783 0 28.078 0 18S.508 5.217 2.858 2.858C5.207.508 7.922 0 18 0s12.793.508 15.142 2.858C35.502 5.217 36 7.922 36 18s-.498 12.783-2.858 15.142C30.793 35.492 28.078 36 18 36z" fill="#000"/><path d="M25.058 17.98c-.682 0-1.14-.448-1.14-1.119 0-.66.448-1.108 1.14-1.108h1.79v2.227h-1.79zm3.305-3.529h-3.468c-1.475 0-2.481.966-2.481 2.35 0 1.098.63 1.921 1.616 2.216l-1.891 2.888h1.678l1.708-2.623h1.343v2.623h1.505v-7.454h-.01zM9.57 16.404v-2.248h2.918v6.376h-3.66c.396-.68.742-2.277.742-4.128zm4.464-3.692h-5.95v3.753c0 1.912-.335 3.396-.782 4.067H6.59v3.397h1.474v-2.013h5.573v2.013h1.475v-3.397h-1.068v-7.82h-.01zm4.495 7.922l-.132-.091 1.739-6.102h-3.519l-.376 1.352 2.044-.01-1.332 4.658c-.234.844.335 1.637 1.27 1.637.296 0 .58-.071.906-.274l2.39-1.617-.732-1.078-2.258 1.525zm1.017-7.586c.742 0 1.047-.275 1.047-.936 0-.681-.325-.966-1.047-.966-.732 0-1.048.275-1.048.966 0 .661.305.936 1.048.936z" fill="#fff"/></svg>