<svg width="48" height="48" fill="none" xmlns="http://www.w3.org/2000/svg"><path d="M24 48c-13.437 0-17.058-.678-20.19-3.81C.664 41.044 0 37.437 0 24 0 10.563.678 6.956 3.81 3.81 6.942.678 10.563 0 24 0c13.437 0 17.058.678 20.19 3.81C47.336 6.956 48 10.563 48 24c0 13.437-.664 17.044-3.81 20.19C41.058 47.322 37.437 48 24 48z" fill="#000"/><path d="M33.41 23.973c-.909 0-1.519-.596-1.519-1.491 0-.882.597-1.478 1.519-1.478h2.386v2.97H33.41zm4.407-4.705h-4.624c-1.966 0-3.309 1.288-3.309 3.132 0 1.465.841 2.563 2.156 2.956l-2.522 3.851h2.238l2.278-3.498h1.79v3.498h2.006v-9.939h-.013zm-25.058 2.604v-2.997h3.892v8.502h-4.882c.529-.909.99-3.038.99-5.505zm5.953-4.922h-7.933v5.003c0 2.549-.447 4.529-1.044 5.424h-.949v4.528h1.966v-2.684h7.43v2.684h1.967v-4.528h-1.424V16.95h-.013zm5.993 10.562l-.176-.122 2.318-8.136h-4.691l-.502 1.804 2.725-.014-1.776 6.21c-.312 1.126.447 2.184 1.695 2.184.393 0 .773-.095 1.207-.366l3.186-2.156-.976-1.438-3.01 2.034zm1.356-10.115c.99 0 1.396-.366 1.396-1.247 0-.909-.434-1.289-1.396-1.289-.977 0-1.397.366-1.397 1.288 0 .882.407 1.248 1.397 1.248z" fill="#fff"/></svg>