<svg width="46" height="30" fill="none" xmlns="http://www.w3.org/2000/svg"><path d="M38.651 16.038c-1.407 0-2.353-1.05-2.353-2.625 0-1.551.925-2.601 2.353-2.601h3.698v5.226H38.65zm6.828-8.281h-7.164c-3.046 0-5.126 2.267-5.126 5.513 0 2.577 1.303 4.51 3.34 5.203l-3.907 6.778h3.466l3.53-6.158h2.773v6.158H45.5V7.757h-.021zM6.655 12.339V7.064h6.03V22.03H5.122c.82-1.6 1.533-5.346 1.533-9.69zm9.223-8.664H3.588v8.807c0 4.487-.693 7.971-1.617 9.547H.5V30h3.046v-4.726H15.06V30h3.046v-7.971H15.9V3.675h-.02zm9.286 18.592l-.273-.215 3.592-14.32h-7.269l-.777 3.175 4.223-.024-2.752 10.93c-.484 1.982.693 3.843 2.626 3.843.609 0 1.197-.167 1.87-.644l4.936-3.795-1.512-2.53-4.664 3.58zm2.1-17.804c1.534 0 2.165-.644 2.165-2.196C29.429.668 28.756 0 27.265 0 25.752 0 25.1.644 25.1 2.267c0 1.552.63 2.196 2.164 2.196z" fill="#fff"/></svg>