<svg width="48" height="48" fill="none" xmlns="http://www.w3.org/2000/svg"><path d="M.957 14.982c.621 0 .958-.362.958-.983v-6.96c0-3.365 1.76-5.124 5.123-5.124h6.987c.62 0 .983-.337.983-.958 0-.62-.362-.957-.983-.957H6.987C2.407 0 0 2.38 0 6.935v7.064c0 .62.336.983.957.983zm46.086 0c.62 0 .957-.362.957-.983V6.935C48 2.432 45.62 0 41.04 0h-7.065c-.62 0-.983.336-.983.957s.362.958.983.958h6.987c3.26 0 5.123 1.76 5.123 5.123v6.96c0 .622.337.984.958.984zM21.89 27.48h.233c2.096 0 3.157-1.035 3.157-3.157V16.38c0-.595-.285-.88-.88-.88-.57 0-.88.285-.88.88v8.177a1.13 1.13 0 01-1.138 1.139h-.88a.83.83 0 00-.854.854c0 .62.388.931 1.242.931zm-7.193-5.951c.776 0 1.268-.492 1.268-1.268v-3.442c0-.802-.492-1.293-1.268-1.293-.75 0-1.242.517-1.242 1.293v3.442c0 .776.491 1.268 1.242 1.268zm18.371 0c.75 0 1.243-.492 1.243-1.268v-3.442c0-.776-.492-1.293-1.242-1.293-.777 0-1.294.491-1.294 1.293v3.442c0 .776.517 1.268 1.293 1.268zm-9.289 13.87c2.846 0 5.693-1.19 7.789-3.287a.893.893 0 00.31-.699c0-.517-.388-.853-.854-.853-.284 0-.517.077-.854.44-1.552 1.552-3.959 2.665-6.39 2.665-2.433 0-4.814-1.113-6.392-2.665-.31-.337-.544-.44-.854-.44-.466 0-.854.336-.854.854 0 .31.155.543.31.698 2.045 2.122 4.943 3.286 7.79 3.286zM6.987 48h7.038c.62 0 .983-.336.983-.957s-.362-.958-.983-.958H7.038c-3.364 0-5.123-1.76-5.123-5.15v-6.934c0-.62-.337-1.01-.958-1.01-.62 0-.957.39-.957 1.01v7.038C0 45.62 2.406 48 6.987 48zm26.988 0h7.064C45.62 48 48 45.542 48 41.04V34c0-.62-.336-1.01-.957-1.01s-.958.39-.958 1.01v6.935c0 3.39-1.863 5.15-5.123 5.15h-6.987c-.62 0-.983.336-.983.957 0 .62.362.957.983.957z" fill="#18192F"/></svg>