<svg width="136" height="137" fill="none" xmlns="http://www.w3.org/2000/svg"><path d="M2.713 43.116c1.76 0 2.712-1.026 2.712-2.786V20.608c0-9.53 4.986-14.516 14.517-14.516h19.795c1.76 0 2.786-.953 2.786-2.713 0-1.76-1.027-2.712-2.786-2.712H19.795C6.818.667 0 7.412 0 20.315V40.33c0 1.76.953 2.786 2.713 2.786zm130.574 0c1.76 0 2.713-1.026 2.713-2.786V20.315C136 7.558 129.255.667 116.278.667H96.263c-1.76 0-2.786.953-2.786 2.712 0 1.76 1.026 2.713 2.786 2.713h19.795c9.238 0 14.517 4.985 14.517 14.516V40.33c0 1.76.953 2.786 2.712 2.786zM62.025 78.527h.66c5.938 0 8.944-2.932 8.944-8.944V47.075c0-1.686-.806-2.493-2.493-2.493-1.612 0-2.492.807-2.492 2.493v23.168c0 1.98-1.613 3.226-3.226 3.226h-2.493c-1.393 0-2.42 1.026-2.42 2.42 0 1.759 1.1 2.638 3.52 2.638zM41.643 61.665c2.2 0 3.593-1.393 3.593-3.593v-9.75c0-2.273-1.393-3.666-3.593-3.666-2.126 0-3.519 1.466-3.519 3.666v9.75c0 2.2 1.393 3.593 3.52 3.593zm52.054 0c2.126 0 3.52-1.393 3.52-3.593v-9.75c0-2.2-1.394-3.666-3.52-3.666-2.2 0-3.666 1.393-3.666 3.666v9.75c0 2.2 1.467 3.593 3.666 3.593zm-26.32 39.297c8.065 0 16.13-3.373 22.068-9.311.44-.367.88-1.026.88-1.98 0-1.466-1.1-2.42-2.42-2.42-.806 0-1.466.22-2.42 1.247-4.398 4.4-11.216 7.552-18.108 7.552-6.892 0-13.637-3.153-18.11-7.552-.879-.953-1.539-1.246-2.419-1.246-1.32 0-2.419.953-2.419 2.42 0 .88.44 1.539.88 1.979 5.792 6.012 14.003 9.311 22.068 9.311zm-47.582 35.705h19.942c1.76 0 2.786-.954 2.786-2.713 0-1.76-1.027-2.713-2.786-2.713H19.942c-9.531 0-14.517-4.985-14.517-14.59V97.003c0-1.76-.953-2.86-2.712-2.86-1.76 0-2.713 1.1-2.713 2.86v19.942c0 12.976 6.818 19.722 19.795 19.722zm76.468 0h20.015c12.977 0 19.722-6.965 19.722-19.722V97.003c0-1.76-.953-2.86-2.713-2.86-1.759 0-2.712 1.1-2.712 2.86v19.648c0 9.605-5.279 14.59-14.517 14.59H96.263c-1.76 0-2.786.953-2.786 2.713 0 1.759 1.026 2.713 2.786 2.713z" fill="#18192F"/></svg>