<svg width="36" height="23" fill="none" xmlns="http://www.w3.org/2000/svg"><path d="M22.437 2.936h-9.55v17.128h9.55V2.936z" fill="#FF5F00"/><path d="M13.493 11.5c0-3.48 1.637-6.567 4.154-8.564a10.861 10.861 0 00-6.732-2.33C4.882.605 0 5.477 0 11.5s4.882 10.895 10.915 10.895c2.547 0 4.882-.878 6.732-2.33a10.871 10.871 0 01-4.154-8.565z" fill="#EB001B"/><path d="M35.324 11.5c0 6.023-4.882 10.895-10.916 10.895a10.86 10.86 0 01-6.73-2.33A10.825 10.825 0 0021.83 11.5c0-3.48-1.637-6.567-4.154-8.564a10.862 10.862 0 016.731-2.33c6.034 0 10.916 4.902 10.916 10.894z" fill="#F79E1B"/></svg>