<svg width="160" height="160" fill="none" xmlns="http://www.w3.org/2000/svg"><path d="M7.695.083H.084v7.612h7.611V.083zm7.611 0h-7.61v7.612h7.61V.083zm7.611 0h-7.61v7.612h7.61V.083zm7.611 0h-7.61v7.612h7.61V.083zm7.612 0h-7.612v7.612h7.611V.083zm7.61 0h-7.61v7.612h7.61V.083zm7.612 0H45.75v7.612h7.61V.083zm15.222 0h-7.611v7.612h7.61V.083zm22.833 0h-7.611v7.612h7.611V.083zm7.611 0h-7.61v7.612h7.61V.083zm15.222 0h-7.611v7.612h7.611V.083zm7.611 0h-7.611v7.612h7.611V.083zm7.612 0h-7.612v7.612h7.612V.083zm7.611 0h-7.611v7.612h7.611V.083zm7.611 0h-7.611v7.612h7.611V.083zm7.611 0h-7.611v7.612h7.611V.083zm7.611 0h-7.611v7.612h7.611V.083z" fill="#18192F"/><path d="M7.695 7.695H.084v7.61h7.611v-7.61zm45.667 0H45.75v7.61h7.61v-7.61zm22.833 0h-7.611v7.61h7.61v-7.61zm7.611 0h-7.611v7.61h7.611v-7.61zm15.222 0h-7.61v7.61h7.61v-7.61zm15.222 0h-7.611v7.61h7.611v-7.61zm45.667 0h-7.611v7.61h7.611v-7.61zM7.695 15.306H.084v7.61h7.611v-7.61zm15.222 0h-7.61v7.61h7.61v-7.61zm7.611 0h-7.61v7.61h7.61v-7.61zm7.612 0h-7.612v7.61h7.611v-7.61zm15.222 0H45.75v7.61h7.61v-7.61zm15.222 0h-7.611v7.61h7.61v-7.61z" fill="#18192F"/><path d="M76.195 15.306h-7.611v7.61h7.61v-7.61zm22.833 0h-7.61v7.61h7.61v-7.61zm15.222 0h-7.611v7.61h7.611v-7.61zm15.223 0h-7.612v7.61h7.612v-7.61zm7.611 0h-7.611v7.61h7.611v-7.61zm7.611 0h-7.611v7.61h7.611v-7.61zm15.222 0h-7.611v7.61h7.611v-7.61zM7.695 22.917H.084v7.61h7.611v-7.61zm15.222 0h-7.61v7.61h7.61v-7.61zm7.611 0h-7.61v7.61h7.61v-7.61zm7.612 0h-7.612v7.61h7.611v-7.61zm15.222 0H45.75v7.61h7.61v-7.61zm15.222 0h-7.611v7.61h7.61v-7.61z" fill="#18192F"/><path d="M76.195 22.917h-7.611v7.61h7.61v-7.61zm7.611 0h-7.611v7.61h7.611v-7.61zm15.222 0h-7.61v7.61h7.61v-7.61zm15.222 0h-7.611v7.61h7.611v-7.61zm15.223 0h-7.612v7.61h7.612v-7.61zm7.611 0h-7.611v7.61h7.611v-7.61zm7.611 0h-7.611v7.61h7.611v-7.61zm15.222 0h-7.611v7.61h7.611v-7.61zM7.695 30.528H.084v7.611h7.611v-7.611zm15.222 0h-7.61v7.611h7.61v-7.611zm7.611 0h-7.61v7.611h7.61v-7.611zm7.612 0h-7.612v7.611h7.611v-7.611zm15.222 0H45.75v7.611h7.61v-7.611zm15.222 0h-7.611v7.611h7.61v-7.611z" fill="#18192F"/><path d="M76.195 30.528h-7.611v7.611h7.61v-7.611zm22.833 0h-7.61v7.611h7.61v-7.611zm15.222 0h-7.611v7.611h7.611v-7.611zm15.223 0h-7.612v7.611h7.612v-7.611zm7.611 0h-7.611v7.611h7.611v-7.611zm7.611 0h-7.611v7.611h7.611v-7.611zm15.222 0h-7.611v7.611h7.611v-7.611zM7.695 38.139H.084v7.611h7.611v-7.61zm45.667 0H45.75v7.611h7.61v-7.61zm15.222 0h-7.611v7.611h7.61v-7.61z" fill="#18192F"/><path d="M76.195 38.139h-7.611v7.611h7.61v-7.61zm7.611 0h-7.611v7.611h7.611v-7.61zm7.611 0h-7.611v7.611h7.611v-7.61zm7.611 0h-7.61v7.611h7.61v-7.61zm15.222 0h-7.611v7.611h7.611v-7.61zm45.667 0h-7.611v7.611h7.611v-7.61zM7.695 45.75H.084v7.611h7.611v-7.61zm7.611 0h-7.61v7.611h7.61v-7.61zm7.611 0h-7.61v7.611h7.61v-7.61zm7.611 0h-7.61v7.611h7.61v-7.61zm7.612 0h-7.612v7.611h7.611v-7.61zm7.61 0h-7.61v7.611h7.61v-7.61zm7.612 0H45.75v7.611h7.61v-7.61zm15.222 0h-7.611v7.611h7.61v-7.61zm15.222 0h-7.611v7.611h7.611v-7.61zm15.222 0h-7.61v7.611h7.61v-7.61zm15.222 0h-7.611v7.611h7.611v-7.61zm7.611 0h-7.611v7.611h7.611v-7.61zm7.612 0h-7.612v7.611h7.612v-7.61zm7.611 0h-7.611v7.611h7.611v-7.61zm7.611 0h-7.611v7.611h7.611v-7.61zm7.611 0h-7.611v7.611h7.611v-7.61zm7.611 0h-7.611v7.611h7.611v-7.61zm-68.5 7.611h-7.611v7.611h7.611v-7.61zm-68.5 7.611h-7.61v7.611h7.61v-7.61zm7.611 0h-7.61v7.611h7.61v-7.61zm7.612 0h-7.612v7.611h7.611v-7.61zm7.61 0h-7.61v7.611h7.61v-7.61zm7.612 0H45.75v7.611h7.61v-7.61zm7.611 0h-7.611v7.611h7.61v-7.61zm15.222 0h-7.611v7.611h7.61v-7.61zm7.611 0h-7.611v7.611h7.611v-7.61zm22.833 0h-7.61v7.611h7.61v-7.61zm15.222 0h-7.611v7.611h7.611v-7.61zm7.612 0h-7.612v7.611h7.612v-7.61zm7.611 0h-7.611v7.611h7.611v-7.61zm7.611 0h-7.611v7.611h7.611v-7.61zm15.222 0h-7.611v7.611h7.611v-7.61zM7.695 68.583H.084v7.611h7.611v-7.61zm15.222 0h-7.61v7.611h7.61v-7.61zm7.611 0h-7.61v7.611h7.61v-7.61zm7.612 0h-7.612v7.611h7.611v-7.61zm7.61 0h-7.61v7.611h7.61v-7.61zm15.223 0h-7.611v7.611h7.61v-7.61zm7.611 0h-7.611v7.611h7.61v-7.61zm30.444 0h-7.61v7.611h7.61v-7.61zm30.445 0h-7.612v7.611h7.612v-7.61zm7.611 0h-7.611v7.611h7.611v-7.61zm7.611 0h-7.611v7.611h7.611v-7.61zm7.611 0h-7.611v7.611h7.611v-7.61zm7.611 0h-7.611v7.611h7.611v-7.61zM15.306 76.194h-7.61v7.611h7.61v-7.61zm7.611 0h-7.61v7.611h7.61v-7.61zm7.611 0h-7.61v7.611h7.61v-7.61zm7.612 0h-7.612v7.611h7.611v-7.61zm7.61 0h-7.61v7.611h7.61v-7.61zm7.612 0H45.75v7.611h7.61v-7.61zm15.222 0h-7.611v7.611h7.61v-7.61z" fill="#18192F"/><path d="M76.195 76.194h-7.611v7.611h7.61v-7.61zm53.278 0h-7.612v7.611h7.612v-7.61zm15.222 0h-7.611v7.611h7.611v-7.61zm15.222 0h-7.611v7.611h7.611v-7.61zM7.695 83.805H.084v7.612h7.611v-7.612zm7.611 0h-7.61v7.612h7.61v-7.612zm7.611 0h-7.61v7.612h7.61v-7.612zm7.611 0h-7.61v7.612h7.61v-7.612zm7.612 0h-7.612v7.612h7.611v-7.612zm22.833 0h-7.611v7.612h7.61v-7.612zm22.833 0h-7.611v7.612h7.611v-7.612zm15.222 0h-7.61v7.612h7.61v-7.612zm7.611 0h-7.61v7.612h7.61v-7.612zm15.222 0h-7.611v7.612h7.611v-7.612zm22.834 0h-7.611v7.612h7.611v-7.612zm15.222 0h-7.611v7.612h7.611v-7.612zM7.695 91.417H.084v7.61h7.611v-7.61zm7.611 0h-7.61v7.61h7.61v-7.61zm22.834 0h-7.612v7.61h7.611v-7.61zm7.61 0h-7.61v7.61h7.61v-7.61zm7.612 0H45.75v7.61h7.61v-7.61zm7.611 0h-7.611v7.61h7.61v-7.61zm7.611 0h-7.611v7.61h7.61v-7.61z" fill="#18192F"/><path d="M76.195 91.417h-7.611v7.61h7.61v-7.61zm30.444 0h-7.61v7.61h7.61v-7.61zm7.611 0h-7.611v7.61h7.611v-7.61zm7.611 0h-7.611v7.61h7.611v-7.61zm7.612 0h-7.612v7.61h7.612v-7.61zm7.611 0h-7.611v7.61h7.611v-7.61zm-53.278 7.611h-7.611v7.611h7.611v-7.611zm15.222 0h-7.61v7.611h7.61v-7.611zm7.611 0h-7.61v7.611h7.61v-7.611zm15.222 0h-7.611v7.611h7.611v-7.611zm22.834 0h-7.611v7.611h7.611v-7.611zm15.222 0h-7.611v7.611h7.611v-7.611zM7.695 106.639H.084v7.611h7.611v-7.611zm7.611 0h-7.61v7.611h7.61v-7.611zm7.611 0h-7.61v7.611h7.61v-7.611zm7.611 0h-7.61v7.611h7.61v-7.611zm7.612 0h-7.612v7.611h7.611v-7.611zm7.61 0h-7.61v7.611h7.61v-7.611zm7.612 0H45.75v7.611h7.61v-7.611zm15.222 0h-7.611v7.611h7.61v-7.611z" fill="#18192F"/><path d="M106.639 106.639h-7.61v7.611h7.61v-7.611zm7.611 0h-7.611v7.611h7.611v-7.611zm7.611 0h-7.611v7.611h7.611v-7.611zM7.695 114.25H.084v7.611h7.611v-7.611zm45.667 0H45.75v7.611h7.61v-7.611zm15.222 0h-7.611v7.611h7.61v-7.611z" fill="#18192F"/><path d="M76.195 114.25h-7.611v7.611h7.61v-7.611zm15.222 0h-7.611v7.611h7.611v-7.611zm22.833 0h-7.611v7.611h7.611v-7.611zm15.223 0h-7.612v7.611h7.612v-7.611zm7.611 0h-7.611v7.611h7.611v-7.611zm15.222 0h-7.611v7.611h7.611v-7.611zM7.695 121.861H.084v7.611h7.611v-7.611zm15.222 0h-7.61v7.611h7.61v-7.611zm7.611 0h-7.61v7.611h7.61v-7.611zm7.612 0h-7.612v7.611h7.611v-7.611zm15.222 0H45.75v7.611h7.61v-7.611zm15.222 0h-7.611v7.611h7.61v-7.611zm15.222 0h-7.611v7.611h7.611v-7.611zm7.611 0h-7.611v7.611h7.611v-7.611zm7.611 0h-7.61v7.611h7.61v-7.611zm45.667 0h-7.611v7.611h7.611v-7.611zm7.611 0h-7.611v7.611h7.611v-7.611zm7.611 0h-7.611v7.611h7.611v-7.611zM7.695 129.472H.084v7.611h7.611v-7.611zm15.222 0h-7.61v7.611h7.61v-7.611zm7.611 0h-7.61v7.611h7.61v-7.611zm7.612 0h-7.612v7.611h7.611v-7.611zm15.222 0H45.75v7.611h7.61v-7.611zm15.222 0h-7.611v7.611h7.61v-7.611zm15.222 0h-7.611v7.611h7.611v-7.611zm7.611 0h-7.611v7.611h7.611v-7.611zm22.833 0h-7.611v7.611h7.611v-7.611zm7.611 0h-7.611v7.611h7.611v-7.611zm22.834 0h-7.611v7.611h7.611v-7.611zm-137 7.611H.084v7.611h7.611v-7.611zm15.222 0h-7.61v7.611h7.61v-7.611zm7.611 0h-7.61v7.611h7.61v-7.611zm7.612 0h-7.612v7.611h7.611v-7.611zm15.222 0H45.75v7.611h7.61v-7.611zm15.222 0h-7.611v7.611h7.61v-7.611zm15.222 0h-7.611v7.611h7.611v-7.611zm7.611 0h-7.611v7.611h7.611v-7.611zm22.833 0h-7.611v7.611h7.611v-7.611zm7.611 0h-7.611v7.611h7.611v-7.611zm15.223 0h-7.611v7.611h7.611v-7.611zm7.611 0h-7.611v7.611h7.611v-7.611zm7.611 0h-7.611v7.611h7.611v-7.611zm7.611 0h-7.611v7.611h7.611v-7.611zM7.695 144.694H.084v7.611h7.611v-7.611zm45.667 0H45.75v7.611h7.61v-7.611zm30.444 0h-7.611v7.611h7.611v-7.611zm15.222 0h-7.61v7.611h7.61v-7.611zm15.222 0h-7.611v7.611h7.611v-7.611zm15.223 0h-7.612v7.611h7.612v-7.611zm30.444 0h-7.611v7.611h7.611v-7.611zM7.695 152.305H.084v7.611h7.611v-7.611zm7.611 0h-7.61v7.611h7.61v-7.611zm7.611 0h-7.61v7.611h7.61v-7.611zm7.611 0h-7.61v7.611h7.61v-7.611zm7.612 0h-7.612v7.611h7.611v-7.611zm7.61 0h-7.61v7.611h7.61v-7.611zm7.612 0H45.75v7.611h7.61v-7.611zm22.833 0h-7.611v7.611h7.61v-7.611z" fill="#18192F"/></svg>