<svg width="36" height="36" fill="none" xmlns="http://www.w3.org/2000/svg"><path d="M7.5 33a3 3 0 01-3-3V6a3 3 0 013-3h21a3 3 0 013 3v24a3 3 0 01-3 3h-21zm20.25-3a.75.75 0 00.75-.75V6.75a.75.75 0 00-.75-.75H8.25a.75.75 0 00-.75.75v22.5c0 .414.336.75.75.75h19.5zM10.5 12a3 3 0 116 0 3 3 0 01-6 0zm0 7.5A1.5 1.5 0 0112 18h12a1.5 1.5 0 110 3H12a1.5 1.5 0 01-1.5-1.5zm0 6A1.5 1.5 0 0112 24h12a1.5 1.5 0 110 3H12a1.5 1.5 0 01-1.5-1.5zm9-13.5a1.5 1.5 0 011.5-1.5h3a1.5 1.5 0 110 3h-3a1.5 1.5 0 01-1.5-1.5z" fill="#18192F"/></svg>