<svg width="36" height="13" fill="none" xmlns="http://www.w3.org/2000/svg"><path d="M13.668.976L8.955 12.054H5.88L3.56 3.213c-.14-.545-.262-.744-.69-.973-.7-.375-1.854-.725-2.87-.943L.069.976h4.95c.63 0 1.198.413 1.341 1.129l1.225 6.411 3.028-7.54h3.055zm12.049 7.46c.013-2.923-4.104-3.084-4.076-4.39.01-.398.393-.82 1.234-.928.416-.054 1.566-.095 2.868.495l.511-2.349c-.7-.25-1.6-.491-2.722-.491-2.875 0-4.898 1.506-4.915 3.662-.019 1.596 1.445 2.485 2.547 3.015 1.133.543 1.513.891 1.509 1.377-.008.744-.904 1.071-1.741 1.084-1.462.023-2.311-.39-2.988-.7l-.526 2.428c.678.307 1.933.575 3.234.588 3.056 0 5.055-1.486 5.065-3.79zm7.593 3.618H36L33.651.976h-2.483c-.558 0-1.029.32-1.238.812l-4.365 10.266h3.054l.607-1.655h3.732l.352 1.655zM30.063 8.13l1.532-4.16.881 4.16h-2.412zM17.826.976L15.42 12.054h-2.91L14.916.976h2.909z" fill="url(#paint0_linear_2363_894)"/><defs><linearGradient id="paint0_linear_2363_894" x1="0" y1="6.5" x2="36" y2="6.5" gradientUnits="userSpaceOnUse"><stop stop-color="#231F5C"/><stop offset="1" stop-color="#034EA2"/></linearGradient></defs></svg>