<svg width="136" height="136" fill="none" xmlns="http://www.w3.org/2000/svg"><path d="M136 68c0 37.555-30.445 68-68 68S0 105.555 0 68 30.445 0 68 0s68 30.445 68 68zM13.6 68c0 30.044 24.356 54.4 54.4 54.4 30.044 0 54.4-24.356 54.4-54.4 0-30.044-24.356-54.4-54.4-54.4-30.044 0-54.4 24.356-54.4 54.4z" fill="#607D8B" fill-opacity=".2"/><path opacity=".05" d="M0 68a68.001 68.001 0 00116.083 48.083A67.996 67.996 0 0068 0v13.6A54.4 54.4 0 1113.6 68H0z" fill="#2E63E6"/><path opacity=".1" d="M19.917 116.083a67.993 67.993 0 0061.35 18.61A67.999 67.999 0 0068 0v13.6a54.4 54.4 0 11-38.467 92.867l-9.616 9.616z" fill="#2E63E6"/><path d="M116.083 116.083A67.996 67.996 0 0068 0v13.6a54.4 54.4 0 0138.467 92.867l9.616 9.616z" fill="#2E63E6"/></svg>