<svg width="88" height="24" viewBox="0 0 88 24" fill="none" xmlns="http://www.w3.org/2000/svg">
<path d="M83.7151 0.423743V4.46139H84.2304V1.01668L85.4054 4.43315H85.8924L87.0957 1.04492V4.43315H87.6397V0.395508H86.9235L85.9494 3.21904C85.8827 3.38359 85.8355 3.52897 85.7963 3.64957C85.7682 3.73591 85.7443 3.80955 85.7203 3.86845C85.6835 3.79631 85.647 3.6781 85.603 3.53588C85.5782 3.45544 85.5509 3.36731 85.52 3.27551L84.5459 0.423743H83.7151Z" fill="#1F495F"/>
<path d="M81.3368 0.903689V4.46133H81.8814V0.903689H83.2274V0.423689H79.9902V0.903689H81.3368Z" fill="#1F495F"/>
<path d="M74.7177 24H58.4736C56.2388 24 54.4053 22.2212 54.4053 19.9906V4.00941C54.4053 1.80706 56.21 0 58.4736 0H74.7177C76.9525 0 78.7861 1.77883 78.7861 4.00941V20.0188C78.7861 22.2212 76.9525 24 74.7177 24Z" fill="#8DC63F"/>
<path fill-rule="evenodd" clip-rule="evenodd" d="M65.8656 19.4259C65.1207 19.4259 64.4903 19.1718 63.9462 18.6353C63.4304 18.1271 63.1437 17.4776 63.1437 16.7436V10.8989C63.1437 10.1647 63.4016 9.54356 63.9462 9.00705C64.462 8.49885 65.1207 8.21647 65.8656 8.21647H72.1402V4.5459H74.69V19.3976H65.8656V19.4259ZM66.4384 16.9129H71.4522C71.8247 16.9129 72.0251 16.8847 72.0826 16.8565C72.1402 16.8 72.1402 16.6024 72.1402 16.2354V11.4353C72.1402 11.0683 72.1114 10.8706 72.0826 10.8141C72.0251 10.7576 71.8247 10.7576 71.4522 10.7576H66.4384C66.066 10.7576 65.8656 10.7859 65.8086 10.8141C65.751 10.8706 65.751 11.0683 65.751 11.4353V16.2071C65.751 16.5741 65.7798 16.7718 65.8086 16.8283C65.8656 16.8847 66.066 16.9129 66.4384 16.9129Z" fill="white"/>
<path d="M61.0244 9.62849H58.4746V19.4261H61.0244V9.62849Z" fill="white"/>
<path d="M58.4746 4.57436H61.0244V7.08729H58.4746V4.57436Z" fill="white"/>
<path fill-rule="evenodd" clip-rule="evenodd" d="M0 4.57422V19.4824H8.79546C9.54031 19.4824 10.1993 19.2001 10.715 18.6919C11.2593 18.1554 11.5172 17.5342 11.5172 16.8001V10.9271C11.5172 10.193 11.2307 9.54366 10.715 9.0354C10.1706 8.49895 9.54031 8.24482 8.79546 8.24482H2.54982V4.57422H0ZM8.25108 16.913H3.23741C2.89362 16.913 2.66442 16.8848 2.60712 16.8283C2.57847 16.7719 2.54982 16.5742 2.54982 16.2071V11.4354C2.54982 11.0683 2.54982 10.8707 2.60712 10.8142C2.66442 10.786 2.86497 10.7577 3.23741 10.7577H8.25108C8.62355 10.7577 8.82408 10.7577 8.88142 10.8142C8.91003 10.8707 8.9387 11.0683 8.9387 11.4354V16.2354C8.9387 16.6024 8.9387 16.8001 8.88142 16.8566C8.82408 16.8848 8.62356 16.913 8.25108 16.913Z" fill="#1F495F"/>
<path fill-rule="evenodd" clip-rule="evenodd" d="M14.0957 18.6353C14.6401 19.1717 15.2704 19.4259 16.0153 19.4259V19.4541H24.868V10.927C24.868 10.1929 24.5815 9.54348 24.0658 9.03528C23.5215 8.49877 22.8912 8.2447 22.1463 8.2447H13.3222V10.7576H21.5733C21.9458 10.7576 22.1463 10.7576 22.2036 10.8141C22.2322 10.8706 22.2609 11.0682 22.2609 11.4353V12.5647H13.2935V16.7435C13.2935 17.4776 13.5801 18.127 14.0957 18.6353ZM22.2609 16.9129H16.5596C16.1871 16.9129 15.9866 16.8847 15.9293 16.8564C15.9007 16.8 15.872 16.6023 15.872 16.2353V14.8517H22.2609V16.9129Z" fill="#1F495F"/>
<path d="M26.6155 19.4259V8.2447H35.4396C36.1845 8.2447 36.8148 8.49877 37.3591 9.03528C37.8748 9.54348 38.1613 10.1929 38.1613 10.927V19.4541H35.6115V11.4353C35.6115 11.0682 35.5829 10.8706 35.5542 10.8141C35.4969 10.7576 35.2964 10.7576 34.9239 10.7576H29.9102C29.5378 10.7576 29.3372 10.7859 29.2799 10.8141C29.2226 10.8706 29.2226 11.0682 29.2226 11.4353V19.4259H26.6155Z" fill="#1F495F"/>
<path d="M39.9375 4.57422V19.426H42.516V15.106H44.5214L48.5611 19.426H51.2827V18.7201L46.7561 13.8354L51.2827 8.95069V8.24482H48.5324L44.4928 12.5648H42.4873V4.57422H39.9375Z" fill="#1F495F"/>
</svg>
