<svg width="24" height="24" viewBox="0 0 24 24" fill="none" xmlns="http://www.w3.org/2000/svg">
<path d="M10.6565 5C10.126 5 9.61732 5.21071 9.24225 5.58579L8.41382 6.41421C8.03875 6.78929 7.53004 7 6.99961 7H4.50003C4.22389 7 4.00003 7.22386 4.00003 7.5V18.5C4.00003 18.7761 4.22389 19 4.50003 19H19.5C19.7762 19 20 18.7761 20 18.5V7.5C20 7.22386 19.7762 7 19.5 7H17.0005C16.47 7 15.9613 6.78929 15.5862 6.41421L14.7578 5.58579C14.3827 5.21071 13.874 5 13.3436 5H10.6565ZM8.41425 3.58579C8.78932 3.21071 9.29803 3 9.82846 3H14.1716C14.702 3 15.2107 3.21071 15.5858 3.58579L16.4142 4.41421C16.7893 4.78929 17.298 5 17.8285 5H20C21.1046 5 22 5.89543 22 7L22 19C22 20.1046 21.1046 21 20 21H4C2.89543 21 2 20.1046 2 19L2.00003 7C2.00003 5.89543 2.89546 5 4.00003 5H6.17161C6.70204 5 7.21075 4.78929 7.58582 4.41421L8.41425 3.58579ZM12 18C10.5413 18 9.1424 17.4205 8.11095 16.3891C7.0795 15.3576 6.50003 13.9587 6.50003 12.5C6.50003 11.0413 7.0795 9.64236 8.11095 8.61091C9.1424 7.57946 10.5413 7 12 7C13.4587 7 14.8577 7.57946 15.8891 8.61091C16.9206 9.64236 17.5 11.0413 17.5 12.5C17.5 13.9587 16.9206 15.3576 15.8891 16.3891C14.8577 17.4205 13.4587 18 12 18ZM12 16C12.9283 16 13.8185 15.6313 14.4749 14.9749C15.1313 14.3185 15.5 13.4283 15.5 12.5C15.5 11.5717 15.1313 10.6815 14.4749 10.0251C13.8185 9.36875 12.9283 9 12 9C11.0718 9 10.1815 9.36875 9.52516 10.0251C8.86878 10.6815 8.50003 11.5717 8.50003 12.5C8.50003 13.4283 8.86878 14.3185 9.52516 14.9749C10.1815 15.6313 11.0718 16 12 16Z" fill="#2E63E6"/>
</svg>
