<svg width="13" height="12" viewBox="0 0 13 12" fill="none" xmlns="http://www.w3.org/2000/svg">
<path d="M6.14708 4.23259C6.34234 4.42785 6.65892 4.42785 6.85418 4.23259L10.7436 0.343143C11.1341 -0.0473225 11.7672 -0.0473235 12.1576 0.343142C12.5481 0.733607 12.5481 1.36668 12.1576 1.75714L8.26818 5.64659C8.07292 5.84185 8.07292 6.15843 8.26818 6.35369L12.1576 10.2431C12.5481 10.6336 12.5481 11.2667 12.1576 11.6571C11.7672 12.0476 11.1341 12.0476 10.7436 11.6571L6.85418 7.76769C6.65892 7.57243 6.34234 7.57243 6.14708 7.76769L2.25763 11.6571C1.86717 12.0476 1.2341 12.0476 0.84363 11.6571C0.453165 11.2667 0.453165 10.6336 0.84363 10.2431L4.73308 6.3537C4.92834 6.15843 4.92834 5.84185 4.73308 5.64659L0.843631 1.75714C0.453166 1.36668 0.453165 0.733607 0.84363 0.343142C1.2341 -0.0473235 1.86716 -0.0473233 2.25763 0.343142L6.14708 4.23259Z" fill="#2E63E6"/>
</svg>
