<svg width="24" height="24" viewBox="0 0 24 24" fill="none" xmlns="http://www.w3.org/2000/svg">
<path d="M11.6466 10.2331C11.8419 10.4283 12.1584 10.4283 12.3537 10.2331L16.2431 6.34363C16.6336 5.95317 17.2667 5.95316 17.6571 6.34363C18.0476 6.7341 18.0476 7.36716 17.6571 7.75763L13.7677 11.6471C13.5724 11.8423 13.5724 12.1589 13.7677 12.3542L17.6571 16.2436C18.0476 16.6341 18.0476 17.2672 17.6571 17.6576C17.2667 18.0481 16.6336 18.0481 16.2431 17.6576L12.3537 13.7682C12.1584 13.5729 11.8419 13.5729 11.6466 13.7682L7.75714 17.6576C7.36668 18.0481 6.73361 18.0481 6.34314 17.6576C5.95268 17.2672 5.95268 16.6341 6.34314 16.2436L10.2326 12.3542C10.4279 12.1589 10.4279 11.8423 10.2326 11.6471L6.34314 7.75763C5.95268 7.36717 5.95268 6.7341 6.34314 6.34363C6.73361 5.95316 7.36668 5.95316 7.75714 6.34363L11.6466 10.2331Z" fill="#18192F"/>
</svg>
