<svg width="16" height="16" viewBox="0 0 16 16" fill="none" xmlns="http://www.w3.org/2000/svg">
<path d="M11.6664 4.66683C11.4823 4.66683 11.3331 4.5176 11.3331 4.33351L11.333 2.66679C11.333 1.93043 10.7361 1.3335 9.9997 1.3335H2.66634C1.92996 1.3335 1.333 1.93046 1.33301 2.66684L1.33308 10.0002C1.33308 10.7366 1.93004 11.3335 2.66641 11.3335H4.33309C4.51718 11.3335 4.66642 11.4827 4.66642 11.6668V13.3335C4.66642 14.0699 5.26338 14.6668 5.99975 14.6668H13.331C14.0674 14.6668 14.6644 14.0699 14.6644 13.3335L14.6643 6.00016C14.6643 5.26378 14.0674 4.66683 13.331 4.66683H11.6664ZM9.99976 4.3335C9.99976 4.51759 9.85052 4.66683 9.66642 4.66683H5.99975C5.26338 4.66683 4.66642 5.26378 4.66642 6.00016V9.66683C4.66642 9.85092 4.51718 10.0002 4.33309 10.0002H2.99976C2.81566 10.0002 2.66642 9.85092 2.66642 9.66683V3.00016C2.66642 2.81607 2.81566 2.66683 2.99976 2.66683H9.66642C9.85052 2.66683 9.99976 2.81607 9.99976 3.00016V4.3335ZM5.99976 6.3335C5.99976 6.1494 6.14899 6.00016 6.33309 6.00016H12.9978C13.1819 6.00016 13.3311 6.14935 13.3312 6.33341L13.333 13.0001C13.333 13.1842 13.1838 13.3335 12.9997 13.3335H6.33309C6.14899 13.3335 5.99976 13.1843 5.99976 13.0002V6.3335Z" fill="#2E63E6"/>
</svg>
