<svg width="24" height="25" viewBox="0 0 24 25" fill="none" xmlns="http://www.w3.org/2000/svg">
<path d="M6.5 4.5C6.77614 4.5 7 4.27614 7 4V3.5C7 2.94772 7.44772 2.5 8 2.5H16C16.5523 2.5 17 2.94772 17 3.5V4C17 4.27614 17.2239 4.5 17.5 4.5H21C21.5523 4.5 22 4.94772 22 5.5C22 6.05228 21.5523 6.5 21 6.5H20.5C20.2239 6.5 20 6.72386 20 7V20.5C20 21.6046 19.1046 22.5 18 22.5H6C4.89543 22.5 4 21.6046 4 20.5V7C4 6.72386 3.77614 6.5 3.5 6.5H3C2.44772 6.5 2 6.05228 2 5.5C2 4.94772 2.44772 4.5 3 4.5H6.5ZM6.5 6.5C6.22386 6.5 6 6.72386 6 7V20C6 20.2761 6.22386 20.5 6.5 20.5H17.5C17.7761 20.5 18 20.2761 18 20V7C18 6.72386 17.7761 6.5 17.5 6.5H6.5ZM9 10.5C9 9.94772 9.44772 9.5 10 9.5C10.5523 9.5 11 9.94772 11 10.5V16.5C11 17.0523 10.5523 17.5 10 17.5C9.44772 17.5 9 17.0523 9 16.5V10.5ZM13 10.5C13 9.94772 13.4477 9.5 14 9.5C14.5523 9.5 15 9.94772 15 10.5V16.5C15 17.0523 14.5523 17.5 14 17.5C13.4477 17.5 13 17.0523 13 16.5V10.5Z" fill="#2E63E6"/>
</svg>
