<svg width="46" height="30" viewBox="0 0 46 30" fill="none" xmlns="http://www.w3.org/2000/svg">
<path d="M38.6513 16.0382C37.2437 16.0382 36.2983 14.9881 36.2983 13.4129C36.2983 11.8616 37.2227 10.8115 38.6513 10.8115H42.3487V16.0382H38.6513ZM45.479 7.75656H38.3151C35.2689 7.75656 33.1891 10.0239 33.1891 13.2697C33.1891 15.8473 34.4916 17.7804 36.5294 18.4726L32.6218 25.2506H36.0882L39.6176 19.0931H42.3908V25.2506H45.5V7.75656H45.479ZM6.65546 12.3389V7.06444H12.6849V22.0286H5.12185C5.94118 20.4296 6.65546 16.6826 6.65546 12.3389ZM15.8781 3.67542H3.58823V12.4821C3.58823 16.969 2.89496 20.4535 1.97059 22.0286H0.5V30H3.54622V25.2745H15.0588V30H18.105V22.0286H15.8992V3.67542H15.8781ZM25.1639 22.2673L24.8908 22.0525L28.4832 7.7327H21.2143L20.437 10.9069L24.6597 10.8831L21.9076 21.8138C21.4244 23.7947 22.6008 25.6563 24.5336 25.6563C25.1429 25.6563 25.7311 25.4893 26.4034 25.0119L31.3403 21.2172L29.8277 18.6874L25.1639 22.2673ZM27.2647 4.46301C28.7983 4.46301 29.4286 3.81862 29.4286 2.2673C29.4286 0.668258 28.7563 0 27.2647 0C25.7521 0 25.1008 0.644391 25.1008 2.2673C25.1008 3.81862 25.7311 4.46301 27.2647 4.46301Z" fill="white"/>
</svg>
