<svg width="48" height="48" viewBox="0 0 48 48" fill="none" xmlns="http://www.w3.org/2000/svg">
<path d="M24 48C10.5627 48 6.94237 47.322 3.81017 44.1898C0.664407 41.0441 0 37.4373 0 24C0 10.5627 0.677966 6.95593 3.81017 3.81017C6.94237 0.677966 10.5627 0 24 0C37.4373 0 41.0576 0.677966 44.1898 3.81017C47.3356 6.95593 48 10.5627 48 24C48 37.4373 47.3356 41.0441 44.1898 44.1898C41.0576 47.322 37.4373 48 24 48Z" fill="black"/>
<path d="M33.4099 23.9732C32.5014 23.9732 31.8912 23.3766 31.8912 22.4817C31.8912 21.6003 32.4878 21.0037 33.4099 21.0037H35.7963V23.9732H33.4099ZM37.8166 19.2681H33.1929C31.2268 19.2681 29.8844 20.5562 29.8844 22.4003C29.8844 23.8647 30.7251 24.963 32.0404 25.3562L29.5183 29.2071H31.7556L34.0336 25.7088H35.8234V29.2071H37.8302V19.2681H37.8166ZM12.759 21.8715V18.8749H16.6505V27.3766H11.7692C12.298 26.4681 12.759 24.3393 12.759 21.8715ZM18.7116 16.9495H10.7794V21.9529C10.7794 24.502 10.3319 26.4817 9.73529 27.3766H8.78613V31.9054H10.7522V29.2206H18.1827V31.9054H20.1488V27.3766H18.7251V16.9495H18.7116ZM24.7048 27.5122L24.5285 27.3901L26.8472 19.2545H22.1556L21.6539 21.0579L24.3794 21.0444L22.6031 27.2545C22.2912 28.38 23.0505 29.4376 24.298 29.4376C24.6912 29.4376 25.0709 29.3427 25.5048 29.0715L28.6912 26.9156L27.7149 25.4783L24.7048 27.5122ZM26.0607 17.3969C27.0505 17.3969 27.4573 17.0308 27.4573 16.1495C27.4573 15.241 27.0234 14.8613 26.0607 14.8613C25.0844 14.8613 24.6641 15.2274 24.6641 16.1495C24.6641 17.0308 25.0709 17.3969 26.0607 17.3969Z" fill="white"/>
</svg>
