<svg width="36" height="36" viewBox="0 0 36 36" fill="none" xmlns="http://www.w3.org/2000/svg">
<path d="M18 36C7.92204 36 5.20678 35.4915 2.85763 33.1424C0.498305 30.783 0 28.078 0 18C0 7.92203 0.508474 5.21695 2.85763 2.85763C5.20678 0.508474 7.92204 0 18 0C28.078 0 30.7932 0.508474 33.1424 2.85763C35.5017 5.21695 36 7.92203 36 18C36 28.078 35.5017 30.783 33.1424 33.1424C30.7932 35.4915 28.078 36 18 36Z" fill="black"/>
<path d="M25.0576 17.9799C24.3763 17.9799 23.9187 17.5324 23.9187 16.8612C23.9187 16.2002 24.3661 15.7528 25.0576 15.7528H26.8475V17.9799H25.0576ZM28.3627 14.4511H24.8949C23.4204 14.4511 22.4136 15.4172 22.4136 16.8002C22.4136 17.8985 23.0441 18.7223 24.0305 19.0172L22.139 21.9053H23.817L25.5254 19.2816H26.8678V21.9053H28.3729V14.4511H28.3627ZM9.56951 16.4036V14.1562H12.4881V20.5324H8.82713C9.22374 19.8511 9.56951 18.2545 9.56951 16.4036ZM14.0339 12.7121H8.08476V16.4646C8.08476 18.3765 7.74917 19.8612 7.30171 20.5324H6.58984V23.929H8.06442V21.9155H13.6373V23.929H15.1119V20.5324H14.0441V12.7121H14.0339ZM18.5288 20.6341L18.3966 20.5426L20.1356 14.4409H16.617L16.2407 15.7935L18.2848 15.7833L16.9526 20.4409C16.7187 21.285 17.2881 22.0782 18.2237 22.0782C18.5187 22.0782 18.8034 22.007 19.1288 21.8036L21.5187 20.1867L20.7865 19.1087L18.5288 20.6341ZM19.5458 13.0477C20.2881 13.0477 20.5932 12.7731 20.5932 12.1121C20.5932 11.4307 20.2678 11.146 19.5458 11.146C18.8136 11.146 18.4983 11.4206 18.4983 12.1121C18.4983 12.7731 18.8034 13.0477 19.5458 13.0477Z" fill="white"/>
</svg>
