<svg width="136" height="137" viewBox="0 0 136 137" fill="none" xmlns="http://www.w3.org/2000/svg">
<path d="M2.71267 43.1161C4.47224 43.1161 5.42534 42.0897 5.42534 40.3301V20.6083C5.42534 11.0773 10.4108 6.09184 19.9418 6.09184H39.7369C41.4965 6.09184 42.5229 5.13874 42.5229 3.37917C42.5229 1.6196 41.4965 0.666504 39.7369 0.666504H19.7951C6.81833 0.666504 0 7.41152 0 20.315V40.3301C0 42.0897 0.9531 43.1161 2.71267 43.1161ZM133.287 43.1161C135.047 43.1161 136 42.0897 136 40.3301V20.315C136 7.55815 129.255 0.666504 116.278 0.666504H96.2631C94.5035 0.666504 93.4771 1.6196 93.4771 3.37917C93.4771 5.13874 94.5035 6.09184 96.2631 6.09184H116.058C125.296 6.09184 130.575 11.0773 130.575 20.6083V40.3301C130.575 42.0897 131.528 43.1161 133.287 43.1161ZM62.0248 78.5274H62.6846C68.6232 78.5274 71.6291 75.5948 71.6291 69.5829V47.0751C71.6291 45.3889 70.8226 44.5824 69.1364 44.5824C67.5235 44.5824 66.6437 45.3889 66.6437 47.0751V70.2428C66.6437 72.2223 65.0307 73.4687 63.4178 73.4687H60.9251C59.5321 73.4687 58.5057 74.4951 58.5057 75.8881C58.5057 77.6476 59.6054 78.5274 62.0248 78.5274ZM41.6431 61.6649C43.8426 61.6649 45.2356 60.2719 45.2356 58.0724V48.3215C45.2356 46.0487 43.8426 44.6557 41.6431 44.6557C39.517 44.6557 38.124 46.122 38.124 48.3215V58.0724C38.124 60.2719 39.517 61.6649 41.6431 61.6649ZM93.697 61.6649C95.8232 61.6649 97.2162 60.2719 97.2162 58.0724V48.3215C97.2162 46.122 95.8232 44.6557 93.697 44.6557C91.4976 44.6557 90.0313 46.0487 90.0313 48.3215V58.0724C90.0313 60.2719 91.4976 61.6649 93.697 61.6649ZM67.3768 100.962C75.4415 100.962 83.5062 97.5894 89.4447 91.6509C89.8846 91.2843 90.3245 90.6245 90.3245 89.6714C90.3245 88.205 89.2248 87.2519 87.9051 87.2519C87.0986 87.2519 86.4388 87.4719 85.4857 88.4983C81.0868 92.8972 74.2685 96.0498 67.3768 96.0498C60.4852 96.0498 53.7402 92.8972 49.2679 88.4983C48.3881 87.5452 47.7283 87.2519 46.8485 87.2519C45.5288 87.2519 44.4291 88.205 44.4291 89.6714C44.4291 90.5511 44.869 91.211 45.3089 91.6509C51.1008 97.6627 59.3121 100.962 67.3768 100.962ZM19.7951 136.667H39.7369C41.4965 136.667 42.5229 135.713 42.5229 133.954C42.5229 132.194 41.4965 131.241 39.7369 131.241H19.9418C10.4108 131.241 5.42534 126.256 5.42534 116.651V97.0029C5.42534 95.2433 4.47224 94.1436 2.71267 94.1436C0.9531 94.1436 0 95.2433 0 97.0029V116.945C0 129.921 6.81833 136.667 19.7951 136.667ZM96.2631 136.667H116.278C129.255 136.667 136 129.702 136 116.945V97.0029C136 95.2433 135.047 94.1436 133.287 94.1436C131.528 94.1436 130.575 95.2433 130.575 97.0029V116.651C130.575 126.256 125.296 131.241 116.058 131.241H96.2631C94.5035 131.241 93.4771 132.194 93.4771 133.954C93.4771 135.713 94.5035 136.667 96.2631 136.667Z" fill="#18192F"/>
</svg>
