<svg width="36" height="23" viewBox="0 0 36 23" fill="none" xmlns="http://www.w3.org/2000/svg">
<path d="M22.4374 2.93555H12.8864V20.0645H22.4374V2.93555Z" fill="#FF5F00"/>
<path d="M13.4927 11.5002C13.4927 8.01993 15.13 4.93309 17.6466 2.93573C15.7971 1.4831 13.4624 0.605469 10.9154 0.605469C4.88163 0.605469 0 5.47783 0 11.5002C0 17.5226 4.88163 22.3949 10.9154 22.3949C13.4624 22.3949 15.7971 21.5173 17.6466 20.0647C15.13 18.0976 13.4927 14.9804 13.4927 11.5002Z" fill="#EB001B"/>
<path d="M35.3239 11.5002C35.3239 17.5226 30.4422 22.3949 24.4084 22.3949C21.8615 22.3949 19.5268 21.5173 17.6772 20.0647C20.2242 18.0673 21.8312 14.9804 21.8312 11.5002C21.8312 8.01993 20.1938 4.93309 17.6772 2.93573C19.5268 1.4831 21.8615 0.605469 24.4084 0.605469C30.4422 0.605469 35.3239 5.50809 35.3239 11.5002Z" fill="#F79E1B"/>
</svg>
