<svg width="20" height="20" viewBox="0 0 20 20" fill="none" xmlns="http://www.w3.org/2000/svg">
<path d="M8.5 9C8.77614 9 9 8.77614 9 8.5V6C9 5.44772 9.44771 5 10 5C10.5523 5 11 5.44772 11 6V8.5C11 8.77614 11.2239 9 11.5 9H14C14.5523 9 15 9.44771 15 10C15 10.5523 14.5523 11 14 11H11.5C11.2239 11 11 11.2239 11 11.5V14C11 14.5523 10.5523 15 10 15C9.44771 15 9 14.5523 9 14V11.5C9 11.2239 8.77614 11 8.5 11H6C5.44772 11 5 10.5523 5 10C5 9.44771 5.44772 9 6 9H8.5ZM10 20C4.477 20 0 15.523 0 10C0 4.477 4.477 0 10 0C15.523 0 20 4.477 20 10C20 15.523 15.523 20 10 20ZM10 18C12.1217 18 14.1566 17.1571 15.6569 15.6569C17.1571 14.1566 18 12.1217 18 10C18 7.87827 17.1571 5.84344 15.6569 4.34315C14.1566 2.84285 12.1217 2 10 2C7.87827 2 5.84344 2.84285 4.34315 4.34315C2.84285 5.84344 2 7.87827 2 10C2 12.1217 2.84285 14.1566 4.34315 15.6569C5.84344 17.1571 7.87827 18 10 18Z" fill="#2E63E6"/>
</svg>
