<svg width="160" height="160" viewBox="0 0 160 160" fill="none" xmlns="http://www.w3.org/2000/svg">
<path d="M7.69508 0.0834961H0.0839844V7.69459H7.69508V0.0834961Z" fill="#18192F"/>
<path d="M15.3062 0.0834961H7.69508V7.69459H15.3062V0.0834961Z" fill="#18192F"/>
<path d="M22.9173 0.0834961H15.3062V7.69459H22.9173V0.0834961Z" fill="#18192F"/>
<path d="M30.5284 0.0834961H22.9173V7.69459H30.5284V0.0834961Z" fill="#18192F"/>
<path d="M38.1395 0.0834961H30.5284V7.69459H38.1395V0.0834961Z" fill="#18192F"/>
<path d="M45.7505 0.0834961H38.1395V7.69459H45.7505V0.0834961Z" fill="#18192F"/>
<path d="M53.3616 0.0834961H45.7505V7.69459H53.3616V0.0834961Z" fill="#18192F"/>
<path d="M68.5838 0.0834961H60.9727V7.69459H68.5838V0.0834961Z" fill="#18192F"/>
<path d="M91.4171 0.0834961H83.806V7.69459H91.4171V0.0834961Z" fill="#18192F"/>
<path d="M99.0282 0.0834961H91.4171V7.69459H99.0282V0.0834961Z" fill="#18192F"/>
<path d="M114.25 0.0834961H106.639V7.69459H114.25V0.0834961Z" fill="#18192F"/>
<path d="M121.861 0.0834961H114.25V7.69459H121.861V0.0834961Z" fill="#18192F"/>
<path d="M129.473 0.0834961H121.861V7.69459H129.473V0.0834961Z" fill="#18192F"/>
<path d="M137.084 0.0834961H129.473V7.69459H137.084V0.0834961Z" fill="#18192F"/>
<path d="M144.695 0.0834961H137.084V7.69459H144.695V0.0834961Z" fill="#18192F"/>
<path d="M152.306 0.0834961H144.695V7.69459H152.306V0.0834961Z" fill="#18192F"/>
<path d="M159.917 0.0834961H152.306V7.69459H159.917V0.0834961Z" fill="#18192F"/>
<path d="M7.69508 7.69459H0.0839844V15.3057H7.69508V7.69459Z" fill="#18192F"/>
<path d="M53.3616 7.69459H45.7505V15.3057H53.3616V7.69459Z" fill="#18192F"/>
<path d="M76.1949 7.69459H68.5838L68.5838 15.3057H76.1949V7.69459Z" fill="#18192F"/>
<path d="M83.806 7.69459H76.1949V15.3057H83.806L83.806 7.69459Z" fill="#18192F"/>
<path d="M99.0282 7.69459H91.4171V15.3057H99.0282V7.69459Z" fill="#18192F"/>
<path d="M114.25 7.69459H106.639V15.3057H114.25V7.69459Z" fill="#18192F"/>
<path d="M159.917 7.69459H152.306V15.3057H159.917V7.69459Z" fill="#18192F"/>
<path d="M7.69508 15.3057H0.0839844V22.9168H7.69508V15.3057Z" fill="#18192F"/>
<path d="M22.9173 15.3057H15.3062V22.9168H22.9173V15.3057Z" fill="#18192F"/>
<path d="M30.5284 15.3057H22.9173V22.9168H30.5284V15.3057Z" fill="#18192F"/>
<path d="M38.1395 15.3057H30.5284V22.9168H38.1395V15.3057Z" fill="#18192F"/>
<path d="M53.3616 15.3057H45.7505V22.9168H53.3616V15.3057Z" fill="#18192F"/>
<path d="M68.5838 15.3057H60.9727V22.9168H68.5838L68.5838 15.3057Z" fill="#18192F"/>
<path d="M76.1949 15.3057H68.5838L68.5838 22.9168H76.1949V15.3057Z" fill="#18192F"/>
<path d="M99.0282 15.3057H91.4171V22.9168H99.0282V15.3057Z" fill="#18192F"/>
<path d="M114.25 15.3057H106.639V22.9168H114.25V15.3057Z" fill="#18192F"/>
<path d="M129.473 15.3057H121.861V22.9168H129.473V15.3057Z" fill="#18192F"/>
<path d="M137.084 15.3057H129.473V22.9168H137.084V15.3057Z" fill="#18192F"/>
<path d="M144.695 15.3057H137.084V22.9168H144.695V15.3057Z" fill="#18192F"/>
<path d="M159.917 15.3057H152.306V22.9168H159.917V15.3057Z" fill="#18192F"/>
<path d="M7.69508 22.9168H0.0839844V30.5279H7.69508V22.9168Z" fill="#18192F"/>
<path d="M22.9173 22.9168H15.3062V30.5279H22.9173V22.9168Z" fill="#18192F"/>
<path d="M30.5284 22.9168H22.9173V30.5279H30.5284V22.9168Z" fill="#18192F"/>
<path d="M38.1395 22.9168H30.5284V30.5279H38.1395V22.9168Z" fill="#18192F"/>
<path d="M53.3616 22.9168H45.7505V30.5279H53.3616V22.9168Z" fill="#18192F"/>
<path d="M68.5838 22.9168H60.9727V30.5279H68.5838V22.9168Z" fill="#18192F"/>
<path d="M76.1949 22.9168H68.5838V30.5279H76.1949V22.9168Z" fill="#18192F"/>
<path d="M83.806 22.9168H76.1949V30.5279H83.806V22.9168Z" fill="#18192F"/>
<path d="M99.0282 22.9168H91.4171V30.5279H99.0282V22.9168Z" fill="#18192F"/>
<path d="M114.25 22.9168H106.639V30.5279H114.25V22.9168Z" fill="#18192F"/>
<path d="M129.473 22.9168H121.861V30.5279H129.473V22.9168Z" fill="#18192F"/>
<path d="M137.084 22.9168H129.473V30.5279H137.084V22.9168Z" fill="#18192F"/>
<path d="M144.695 22.9168H137.084V30.5279H144.695V22.9168Z" fill="#18192F"/>
<path d="M159.917 22.9168H152.306V30.5279H159.917V22.9168Z" fill="#18192F"/>
<path d="M7.69508 30.5279H0.0839844V38.139H7.69508V30.5279Z" fill="#18192F"/>
<path d="M22.9173 30.5279H15.3062V38.139H22.9173V30.5279Z" fill="#18192F"/>
<path d="M30.5284 30.5279H22.9173V38.139H30.5284V30.5279Z" fill="#18192F"/>
<path d="M38.1395 30.5279H30.5284V38.139H38.1395V30.5279Z" fill="#18192F"/>
<path d="M53.3616 30.5279H45.7505V38.139H53.3616V30.5279Z" fill="#18192F"/>
<path d="M68.5838 30.5279H60.9727V38.139H68.5838V30.5279Z" fill="#18192F"/>
<path d="M76.1949 30.5279H68.5838V38.139H76.1949V30.5279Z" fill="#18192F"/>
<path d="M99.0282 30.5279H91.4171V38.139H99.0282V30.5279Z" fill="#18192F"/>
<path d="M114.25 30.5279H106.639V38.139H114.25V30.5279Z" fill="#18192F"/>
<path d="M129.473 30.5279H121.861V38.139H129.473V30.5279Z" fill="#18192F"/>
<path d="M137.084 30.5279H129.473V38.139H137.084V30.5279Z" fill="#18192F"/>
<path d="M144.695 30.5279H137.084V38.139H144.695V30.5279Z" fill="#18192F"/>
<path d="M159.917 30.5279H152.306V38.139H159.917V30.5279Z" fill="#18192F"/>
<path d="M7.69508 38.139H0.0839844V45.7501H7.69508V38.139Z" fill="#18192F"/>
<path d="M53.3616 38.139H45.7505V45.7501H53.3616V38.139Z" fill="#18192F"/>
<path d="M68.5838 38.139H60.9727V45.7501H68.5838V38.139Z" fill="#18192F"/>
<path d="M76.1949 38.139H68.5838V45.7501H76.1949V38.139Z" fill="#18192F"/>
<path d="M83.806 38.139H76.1949V45.7501H83.806V38.139Z" fill="#18192F"/>
<path d="M91.4171 38.139H83.806V45.7501H91.4171V38.139Z" fill="#18192F"/>
<path d="M99.0282 38.139H91.4171V45.7501H99.0282V38.139Z" fill="#18192F"/>
<path d="M114.25 38.139H106.639V45.7501H114.25V38.139Z" fill="#18192F"/>
<path d="M159.917 38.139H152.306V45.7501H159.917V38.139Z" fill="#18192F"/>
<path d="M7.69508 45.7501H0.0839844V53.3612H7.69508V45.7501Z" fill="#18192F"/>
<path d="M15.3062 45.7501H7.69508V53.3612H15.3062V45.7501Z" fill="#18192F"/>
<path d="M22.9173 45.7501H15.3062V53.3612H22.9173V45.7501Z" fill="#18192F"/>
<path d="M30.5284 45.7501H22.9173V53.3612H30.5284V45.7501Z" fill="#18192F"/>
<path d="M38.1395 45.7501H30.5284V53.3612H38.1395V45.7501Z" fill="#18192F"/>
<path d="M45.7505 45.7501H38.1395V53.3612H45.7505V45.7501Z" fill="#18192F"/>
<path d="M53.3616 45.7501H45.7505V53.3612H53.3616V45.7501Z" fill="#18192F"/>
<path d="M68.5838 45.7501H60.9727V53.3612H68.5838V45.7501Z" fill="#18192F"/>
<path d="M83.806 45.7501H76.1949L76.1949 53.3612H83.806V45.7501Z" fill="#18192F"/>
<path d="M99.0282 45.7501H91.4171V53.3612H99.0282V45.7501Z" fill="#18192F"/>
<path d="M114.25 45.7501H106.639V53.3612H114.25V45.7501Z" fill="#18192F"/>
<path d="M121.861 45.7501H114.25V53.3612H121.861V45.7501Z" fill="#18192F"/>
<path d="M129.473 45.7501H121.861V53.3612H129.473V45.7501Z" fill="#18192F"/>
<path d="M137.084 45.7501H129.473V53.3612H137.084V45.7501Z" fill="#18192F"/>
<path d="M144.695 45.7501H137.084V53.3612H144.695V45.7501Z" fill="#18192F"/>
<path d="M152.306 45.7501H144.695V53.3612H152.306V45.7501Z" fill="#18192F"/>
<path d="M159.917 45.7501H152.306V53.3612H159.917V45.7501Z" fill="#18192F"/>
<path d="M91.4171 53.3612H83.806L83.806 60.9722H91.4171V53.3612Z" fill="#18192F"/>
<path d="M22.9173 60.9722H15.3062V68.5833H22.9173V60.9722Z" fill="#18192F"/>
<path d="M30.5284 60.9722H22.9173V68.5833H30.5284V60.9722Z" fill="#18192F"/>
<path d="M38.1395 60.9722H30.5284V68.5833H38.1395V60.9722Z" fill="#18192F"/>
<path d="M45.7505 60.9722H38.1395V68.5833H45.7505V60.9722Z" fill="#18192F"/>
<path d="M53.3616 60.9722H45.7505V68.5833H53.3616V60.9722Z" fill="#18192F"/>
<path d="M60.9727 60.9722H53.3616V68.5833H60.9727V60.9722Z" fill="#18192F"/>
<path d="M76.1949 60.9722H68.5838V68.5833H76.1949V60.9722Z" fill="#18192F"/>
<path d="M83.806 60.9722L76.1949 60.9722V68.5833H83.806L83.806 60.9722Z" fill="#18192F"/>
<path d="M106.639 60.9722H99.0282V68.5833H106.639V60.9722Z" fill="#18192F"/>
<path d="M121.861 60.9722H114.25V68.5833H121.861V60.9722Z" fill="#18192F"/>
<path d="M129.473 60.9722H121.861V68.5833H129.473V60.9722Z" fill="#18192F"/>
<path d="M137.084 60.9722H129.473V68.5833H137.084V60.9722Z" fill="#18192F"/>
<path d="M144.695 60.9722H137.084V68.5833H144.695V60.9722Z" fill="#18192F"/>
<path d="M159.917 60.9722H152.306V68.5833H159.917V60.9722Z" fill="#18192F"/>
<path d="M7.69508 68.5833H0.0839844V76.1944H7.69508V68.5833Z" fill="#18192F"/>
<path d="M22.9173 68.5833H15.3062V76.1944H22.9173V68.5833Z" fill="#18192F"/>
<path d="M30.5284 68.5833H22.9173V76.1944H30.5284V68.5833Z" fill="#18192F"/>
<path d="M38.1395 68.5833H30.5284V76.1944H38.1395V68.5833Z" fill="#18192F"/>
<path d="M45.7505 68.5833H38.1395V76.1944H45.7505V68.5833Z" fill="#18192F"/>
<path d="M60.9727 68.5833H53.3616V76.1944H60.9727V68.5833Z" fill="#18192F"/>
<path d="M68.5838 68.5833H60.9727V76.1944H68.5838L68.5838 68.5833Z" fill="#18192F"/>
<path d="M99.0282 68.5833L91.4171 68.5833V76.1944H99.0282V68.5833Z" fill="#18192F"/>
<path d="M129.473 68.5833H121.861V76.1944H129.473V68.5833Z" fill="#18192F"/>
<path d="M137.084 68.5833H129.473V76.1944H137.084V68.5833Z" fill="#18192F"/>
<path d="M144.695 68.5833H137.084V76.1944H144.695V68.5833Z" fill="#18192F"/>
<path d="M152.306 68.5833H144.695V76.1944H152.306V68.5833Z" fill="#18192F"/>
<path d="M159.917 68.5833H152.306V76.1944H159.917V68.5833Z" fill="#18192F"/>
<path d="M15.3062 76.1944H7.69508V83.8055H15.3062V76.1944Z" fill="#18192F"/>
<path d="M22.9173 76.1944H15.3062V83.8055H22.9173V76.1944Z" fill="#18192F"/>
<path d="M30.5284 76.1944H22.9173V83.8055H30.5284V76.1944Z" fill="#18192F"/>
<path d="M38.1395 76.1944H30.5284V83.8055H38.1395V76.1944Z" fill="#18192F"/>
<path d="M45.7505 76.1944H38.1395V83.8055H45.7505V76.1944Z" fill="#18192F"/>
<path d="M53.3616 76.1944H45.7505V83.8055H53.3616V76.1944Z" fill="#18192F"/>
<path d="M68.5838 76.1944H60.9727L60.9727 83.8055H68.5838V76.1944Z" fill="#18192F"/>
<path d="M76.1949 76.1944L68.5838 76.1944V83.8055H76.1949V76.1944Z" fill="#18192F"/>
<path d="M129.473 76.1944H121.861V83.8055H129.473V76.1944Z" fill="#18192F"/>
<path d="M144.695 76.1944H137.084V83.8055H144.695V76.1944Z" fill="#18192F"/>
<path d="M159.917 76.1944H152.306V83.8055H159.917V76.1944Z" fill="#18192F"/>
<path d="M7.69508 83.8055L0.0839844 83.8055V91.4166H7.69508V83.8055Z" fill="#18192F"/>
<path d="M15.3062 83.8055H7.69508V91.4166H15.3062V83.8055Z" fill="#18192F"/>
<path d="M22.9173 83.8055H15.3062V91.4166H22.9173V83.8055Z" fill="#18192F"/>
<path d="M30.5284 83.8055H22.9173V91.4166H30.5284V83.8055Z" fill="#18192F"/>
<path d="M38.1395 83.8055H30.5284V91.4166H38.1395V83.8055Z" fill="#18192F"/>
<path d="M60.9727 83.8055H53.3616V91.4166H60.9727L60.9727 83.8055Z" fill="#18192F"/>
<path d="M83.806 83.8055L76.1949 83.8055L76.1949 91.4166H83.806V83.8055Z" fill="#18192F"/>
<path d="M99.0282 83.8055H91.4171V91.4166H99.0282V83.8055Z" fill="#18192F"/>
<path d="M106.639 83.8055H99.0282V91.4166H106.639V83.8055Z" fill="#18192F"/>
<path d="M121.861 83.8055L114.25 83.8055V91.4166H121.861V83.8055Z" fill="#18192F"/>
<path d="M144.695 83.8055H137.084V91.4166H144.695V83.8055Z" fill="#18192F"/>
<path d="M159.917 83.8055H152.306V91.4166H159.917V83.8055Z" fill="#18192F"/>
<path d="M7.69508 91.4166H0.0839844V99.0277H7.69508V91.4166Z" fill="#18192F"/>
<path d="M15.3062 91.4166H7.69508V99.0277H15.3062V91.4166Z" fill="#18192F"/>
<path d="M38.1395 91.4166H30.5284V99.0277H38.1395V91.4166Z" fill="#18192F"/>
<path d="M45.7505 91.4166H38.1395V99.0277H45.7505V91.4166Z" fill="#18192F"/>
<path d="M53.3616 91.4166H45.7505V99.0277H53.3616V91.4166Z" fill="#18192F"/>
<path d="M60.9727 91.4166H53.3616V99.0277H60.9727V91.4166Z" fill="#18192F"/>
<path d="M68.5838 91.4166H60.9727V99.0277H68.5838V91.4166Z" fill="#18192F"/>
<path d="M76.1949 91.4166H68.5838V99.0277H76.1949L76.1949 91.4166Z" fill="#18192F"/>
<path d="M106.639 91.4166H99.0282V99.0277H106.639V91.4166Z" fill="#18192F"/>
<path d="M114.25 91.4166H106.639V99.0277H114.25V91.4166Z" fill="#18192F"/>
<path d="M121.861 91.4166H114.25V99.0277H121.861V91.4166Z" fill="#18192F"/>
<path d="M129.473 91.4166H121.861V99.0277H129.473V91.4166Z" fill="#18192F"/>
<path d="M137.084 91.4166H129.473V99.0277H137.084V91.4166Z" fill="#18192F"/>
<path d="M83.806 99.0277H76.1949L76.1949 106.639H83.806V99.0277Z" fill="#18192F"/>
<path d="M99.0282 99.0277H91.4171V106.639H99.0282V99.0277Z" fill="#18192F"/>
<path d="M106.639 99.0277H99.0282V106.639H106.639V99.0277Z" fill="#18192F"/>
<path d="M121.861 99.0277H114.25V106.639H121.861V99.0277Z" fill="#18192F"/>
<path d="M144.695 99.0277H137.084V106.639H144.695V99.0277Z" fill="#18192F"/>
<path d="M159.917 99.0277H152.306V106.639H159.917V99.0277Z" fill="#18192F"/>
<path d="M7.69508 106.639H0.0839844V114.25H7.69508V106.639Z" fill="#18192F"/>
<path d="M15.3062 106.639H7.69508V114.25H15.3062V106.639Z" fill="#18192F"/>
<path d="M22.9173 106.639H15.3062V114.25H22.9173V106.639Z" fill="#18192F"/>
<path d="M30.5284 106.639H22.9173V114.25H30.5284V106.639Z" fill="#18192F"/>
<path d="M38.1395 106.639H30.5284V114.25H38.1395V106.639Z" fill="#18192F"/>
<path d="M45.7505 106.639H38.1395V114.25H45.7505V106.639Z" fill="#18192F"/>
<path d="M53.3616 106.639H45.7505V114.25H53.3616V106.639Z" fill="#18192F"/>
<path d="M68.5838 106.639H60.9727V114.25H68.5838V106.639Z" fill="#18192F"/>
<path d="M106.639 106.639H99.0282V114.25H106.639V106.639Z" fill="#18192F"/>
<path d="M114.25 106.639H106.639V114.25H114.25V106.639Z" fill="#18192F"/>
<path d="M121.861 106.639H114.25V114.25H121.861V106.639Z" fill="#18192F"/>
<path d="M7.69508 114.25H0.0839844V121.861H7.69508V114.25Z" fill="#18192F"/>
<path d="M53.3616 114.25H45.7505V121.861H53.3616V114.25Z" fill="#18192F"/>
<path d="M68.5838 114.25H60.9727V121.861H68.5838V114.25Z" fill="#18192F"/>
<path d="M76.1949 114.25H68.5838V121.861H76.1949V114.25Z" fill="#18192F"/>
<path d="M91.4171 114.25H83.806V121.861H91.4171V114.25Z" fill="#18192F"/>
<path d="M114.25 114.25H106.639V121.861H114.25V114.25Z" fill="#18192F"/>
<path d="M129.473 114.25H121.861V121.861H129.473V114.25Z" fill="#18192F"/>
<path d="M137.084 114.25H129.473V121.861H137.084V114.25Z" fill="#18192F"/>
<path d="M152.306 114.25H144.695V121.861H152.306V114.25Z" fill="#18192F"/>
<path d="M7.69508 121.861H0.0839844V129.472H7.69508V121.861Z" fill="#18192F"/>
<path d="M22.9173 121.861H15.3062V129.472H22.9173V121.861Z" fill="#18192F"/>
<path d="M30.5284 121.861H22.9173V129.472H30.5284V121.861Z" fill="#18192F"/>
<path d="M38.1395 121.861H30.5284V129.472H38.1395V121.861Z" fill="#18192F"/>
<path d="M53.3616 121.861H45.7505V129.472H53.3616V121.861Z" fill="#18192F"/>
<path d="M68.5838 121.861H60.9727V129.472H68.5838V121.861Z" fill="#18192F"/>
<path d="M83.806 121.861H76.1949L76.1949 129.472H83.806L83.806 121.861Z" fill="#18192F"/>
<path d="M91.4171 121.861H83.806L83.806 129.472H91.4171V121.861Z" fill="#18192F"/>
<path d="M99.0282 121.861H91.4171V129.472H99.0282V121.861Z" fill="#18192F"/>
<path d="M144.695 121.861H137.084V129.472H144.695V121.861Z" fill="#18192F"/>
<path d="M152.306 121.861H144.695V129.472H152.306V121.861Z" fill="#18192F"/>
<path d="M159.917 121.861H152.306V129.472H159.917V121.861Z" fill="#18192F"/>
<path d="M7.69508 129.472H0.0839844V137.083H7.69508V129.472Z" fill="#18192F"/>
<path d="M22.9173 129.472H15.3062V137.083H22.9173V129.472Z" fill="#18192F"/>
<path d="M30.5284 129.472H22.9173V137.083H30.5284V129.472Z" fill="#18192F"/>
<path d="M38.1395 129.472H30.5284V137.083H38.1395V129.472Z" fill="#18192F"/>
<path d="M53.3616 129.472H45.7505V137.083H53.3616V129.472Z" fill="#18192F"/>
<path d="M68.5838 129.472H60.9727V137.083H68.5838V129.472Z" fill="#18192F"/>
<path d="M83.806 129.472H76.1949V137.083H83.806V129.472Z" fill="#18192F"/>
<path d="M91.4171 129.472H83.806V137.083H91.4171V129.472Z" fill="#18192F"/>
<path d="M114.25 129.472H106.639V137.083H114.25V129.472Z" fill="#18192F"/>
<path d="M121.861 129.472H114.25V137.083H121.861V129.472Z" fill="#18192F"/>
<path d="M144.695 129.472H137.084V137.083H144.695V129.472Z" fill="#18192F"/>
<path d="M7.69508 137.083H0.0839844V144.694H7.69508V137.083Z" fill="#18192F"/>
<path d="M22.9173 137.083H15.3062V144.694H22.9173V137.083Z" fill="#18192F"/>
<path d="M30.5284 137.083H22.9173V144.694H30.5284V137.083Z" fill="#18192F"/>
<path d="M38.1395 137.083H30.5284V144.694H38.1395V137.083Z" fill="#18192F"/>
<path d="M53.3616 137.083H45.7505V144.694H53.3616V137.083Z" fill="#18192F"/>
<path d="M68.5838 137.083H60.9727V144.694H68.5838V137.083Z" fill="#18192F"/>
<path d="M83.806 137.083H76.1949V144.694H83.806V137.083Z" fill="#18192F"/>
<path d="M91.4171 137.083H83.806V144.694H91.4171V137.083Z" fill="#18192F"/>
<path d="M114.25 137.083H106.639V144.694H114.25V137.083Z" fill="#18192F"/>
<path d="M121.861 137.083H114.25V144.694H121.861V137.083Z" fill="#18192F"/>
<path d="M137.084 137.083H129.473V144.694H137.084V137.083Z" fill="#18192F"/>
<path d="M144.695 137.083H137.084V144.694H144.695V137.083Z" fill="#18192F"/>
<path d="M152.306 137.083H144.695V144.694H152.306V137.083Z" fill="#18192F"/>
<path d="M159.917 137.083H152.306V144.694H159.917V137.083Z" fill="#18192F"/>
<path d="M7.69508 144.694H0.0839844V152.305H7.69508V144.694Z" fill="#18192F"/>
<path d="M53.3616 144.694H45.7505V152.305H53.3616V144.694Z" fill="#18192F"/>
<path d="M83.806 144.694H76.1949V152.305H83.806V144.694Z" fill="#18192F"/>
<path d="M99.0282 144.694H91.4171V152.305H99.0282V144.694Z" fill="#18192F"/>
<path d="M114.25 144.694H106.639V152.305H114.25V144.694Z" fill="#18192F"/>
<path d="M129.473 144.694H121.861V152.305H129.473V144.694Z" fill="#18192F"/>
<path d="M159.917 144.694H152.306V152.305H159.917V144.694Z" fill="#18192F"/>
<path d="M7.69508 152.305H0.0839844V159.916H7.69508V152.305Z" fill="#18192F"/>
<path d="M15.3062 152.305H7.69508V159.916H15.3062V152.305Z" fill="#18192F"/>
<path d="M22.9173 152.305H15.3062V159.916H22.9173V152.305Z" fill="#18192F"/>
<path d="M30.5284 152.305H22.9173V159.916H30.5284V152.305Z" fill="#18192F"/>
<path d="M38.1395 152.305H30.5284V159.916H38.1395V152.305Z" fill="#18192F"/>
<path d="M45.7505 152.305H38.1395V159.916H45.7505V152.305Z" fill="#18192F"/>
<path d="M53.3616 152.305H45.7505V159.916H53.3616V152.305Z" fill="#18192F"/>
<path d="M76.1949 152.305H68.5838V159.916H76.1949L76.1949 152.305Z" fill="#18192F"/>
</svg>
