<svg width="36" height="36" viewBox="0 0 36 36" fill="none" xmlns="http://www.w3.org/2000/svg">
<path d="M7.5 33C5.84315 33 4.5 31.6569 4.5 30V6C4.5 4.34315 5.84315 3 7.5 3H28.5C30.1569 3 31.5 4.34315 31.5 6V30C31.5 31.6569 30.1569 33 28.5 33H7.5ZM27.75 30C28.1642 30 28.5 29.6642 28.5 29.25V6.75C28.5 6.33579 28.1642 6 27.75 6H8.25002C7.83581 6 7.50002 6.33579 7.50002 6.75V29.25C7.50002 29.6642 7.83581 30 8.25002 30H27.75ZM10.5 12C10.5 10.3431 11.8432 9 13.5 9C15.1569 9 16.5 10.3431 16.5 12C16.5 13.6569 15.1569 15 13.5 15C11.8432 15 10.5 13.6569 10.5 12ZM10.5 19.5C10.5 18.6716 11.1716 18 12 18H24C24.8285 18 25.5 18.6716 25.5 19.5C25.5 20.3284 24.8285 21 24 21H12C11.1716 21 10.5 20.3284 10.5 19.5ZM10.5 25.5C10.5 24.6716 11.1716 24 12 24H24C24.8285 24 25.5 24.6716 25.5 25.5C25.5 26.3284 24.8285 27 24 27H12C11.1716 27 10.5 26.3284 10.5 25.5ZM19.5 12C19.5 11.1716 20.1716 10.5 21 10.5H24C24.8285 10.5 25.5 11.1716 25.5 12C25.5 12.8284 24.8285 13.5 24 13.5H21C20.1716 13.5 19.5 12.8284 19.5 12Z" fill="#18192F"/>
</svg>
