<svg width="24" height="24" viewBox="0 0 24 24" fill="none" xmlns="http://www.w3.org/2000/svg">
<path d="M15.779 7.65692C16.1695 8.04739 16.8025 8.04739 17.193 7.65692C17.5835 7.26646 17.5835 6.63339 17.193 6.24292L12.3035 1.35348C12.1083 1.15822 11.7917 1.15822 11.5964 1.35348L6.70745 6.24247C6.31677 6.63315 6.31688 7.26659 6.7077 7.65712C7.09835 8.0475 7.73148 8.04735 8.12195 7.65677L10.5232 5.25485C10.6807 5.09732 10.95 5.20886 10.95 5.4316V15.9999C10.95 16.5522 11.3977 16.9999 11.95 16.9999C12.5023 16.9999 12.95 16.5522 12.95 15.9999V5.43148C12.95 5.20875 13.2193 5.09721 13.3768 5.2547L15.779 7.65692Z" fill="#2E63E6"/>
<path d="M3 7.99993C2.44771 7.99993 2 8.44764 2 8.99993L2.00002 18.9999C2.00002 20.1045 2.89545 20.9999 4.00002 20.9999H21C21.5523 20.9999 22 20.5522 22 19.9999V8.99993C22 8.44764 21.5523 7.99993 21 7.99993C20.4477 7.99993 20 8.44764 20 8.99993V18.4999C20 18.7761 19.7761 18.9999 19.5 18.9999H4.5C4.22385 18.9999 4 18.7761 4 18.4999V8.99992C4 8.44764 3.55228 7.99993 3 7.99993Z" fill="#2E63E6"/>
</svg>
