<svg width="36" height="13" viewBox="0 0 36 13" fill="none" xmlns="http://www.w3.org/2000/svg">
<path d="M13.6682 0.975577L8.955 12.0543H5.88017L3.56083 3.21269C3.42 2.66836 3.29783 2.46852 2.86983 2.23962C2.1705 1.8654 1.01583 1.51466 0 1.29692L0.0685 0.975577H5.01867C5.64917 0.975577 6.21683 1.38888 6.36 2.10497L7.585 8.51599L10.6127 0.975577H13.6682ZM25.7167 8.43684C25.7297 5.51319 21.613 5.35178 21.6413 4.04537C21.6505 3.64816 22.0343 3.22583 22.8752 3.11762C23.2913 3.06409 24.4408 3.02254 25.743 3.61319L26.2542 1.26425C25.5537 1.01367 24.6535 0.772949 23.5325 0.772949C20.6575 0.772949 18.6335 2.27903 18.6173 4.43503C18.5982 6.0306 20.0617 6.91976 21.1643 7.45031C22.2972 7.99317 22.6772 8.34144 22.673 8.82699C22.6645 9.57067 21.769 9.89842 20.9318 9.9114C19.4695 9.93373 18.6205 9.5219 17.9442 9.2114L17.4175 11.6392C18.0965 11.9464 19.3513 12.2144 20.6523 12.2275C23.7085 12.2275 25.7072 10.7408 25.7167 8.43684ZM33.3095 12.0543H36L33.6515 0.975577H31.1685C30.61 0.975577 30.1392 1.29528 29.9302 1.78806L25.5653 12.0543H28.6192L29.2262 10.3991H32.958L33.3095 12.0543ZM30.0635 8.1288L31.5948 3.96902L32.4763 8.1288H30.0635ZM17.8248 0.975577L15.4193 12.0543H12.51L14.9163 0.975577H17.8248Z" fill="url(#paint0_linear_2363_894)"/>
<defs>
<linearGradient id="paint0_linear_2363_894" x1="0" y1="6.50024" x2="36" y2="6.50024" gradientUnits="userSpaceOnUse">
<stop stop-color="#231F5C"/>
<stop offset="1" stop-color="#034EA2"/>
</linearGradient>
</defs>
</svg>
