<svg width="136" height="136" viewBox="0 0 136 136" fill="none" xmlns="http://www.w3.org/2000/svg">
<path d="M136 68C136 105.555 105.555 136 68 136C30.4446 136 0 105.555 0 68C0 30.4446 30.4446 0 68 0C105.555 0 136 30.4446 136 68ZM13.6 68C13.6 98.0443 37.9557 122.4 68 122.4C98.0443 122.4 122.4 98.0443 122.4 68C122.4 37.9557 98.0443 13.6 68 13.6C37.9557 13.6 13.6 37.9557 13.6 68Z" fill="#607D8B" fill-opacity="0.2"/>
<path opacity="0.05" d="M0 68C-1.17576e-06 81.4491 3.98813 94.5962 11.4601 105.779C18.932 116.961 29.5521 125.677 41.9775 130.824C54.4029 135.971 68.0754 137.317 81.2661 134.693C94.4568 132.07 106.573 125.593 116.083 116.083C125.593 106.573 132.07 94.4569 134.693 81.2662C137.317 68.0754 135.971 54.4029 130.824 41.9775C125.677 29.5522 116.961 18.932 105.779 11.4601C94.5962 3.98813 81.4491 1.01538e-06 68 0V13.6C78.7593 13.6 89.277 16.7905 98.223 22.7681C107.169 28.7456 114.142 37.2417 118.259 47.182C122.376 57.1223 123.454 68.0604 121.355 78.6129C119.256 89.1655 114.075 98.8587 106.467 106.467C98.8586 114.075 89.1655 119.256 78.6129 121.355C68.0603 123.454 57.1223 122.376 47.182 118.259C37.2417 114.142 28.7456 107.169 22.768 98.223C16.7905 89.277 13.6 78.7593 13.6 68H0Z" fill="#2E63E6"/>
<path opacity="0.1" d="M19.9167 116.083C27.8241 123.991 37.5595 129.826 48.2606 133.072C58.9618 136.318 70.2983 136.875 81.2661 134.693C92.2339 132.512 102.494 127.659 111.139 120.565C119.783 113.471 126.544 104.354 130.824 94.0225C135.103 83.691 136.769 72.4637 135.673 61.3348C134.576 50.206 130.753 39.5193 124.54 30.2212C118.327 20.9232 109.917 13.3008 100.055 8.02936C90.1927 2.75788 79.1827 8.44268e-07 68 0V13.6C76.9461 13.6 85.7542 15.8063 93.644 20.0235C101.534 24.2407 108.262 30.3385 113.232 37.777C118.202 45.2154 121.261 53.7648 122.138 62.6679C123.015 71.5709 121.683 80.5528 118.259 88.818C114.836 97.0831 109.426 104.376 102.511 110.052C95.5955 115.727 87.3871 119.609 78.6129 121.355C69.8387 123.1 60.7694 122.654 52.2085 120.058C43.6476 117.461 35.8593 112.792 29.5334 106.467L19.9167 116.083Z" fill="#2E63E6"/>
<path d="M116.083 116.083C125.593 106.573 132.07 94.4569 134.693 81.2662C137.317 68.0754 135.971 54.4029 130.824 41.9775C125.677 29.5522 116.961 18.932 105.779 11.4601C94.5962 3.98813 81.4491 1.01538e-06 68 0V13.6C78.7593 13.6 89.277 16.7905 98.223 22.7681C107.169 28.7456 114.142 37.2417 118.259 47.182C122.376 57.1223 123.454 68.0604 121.355 78.6129C119.256 89.1655 114.075 98.8586 106.467 106.467L116.083 116.083Z" fill="#2E63E6"/>
</svg>
